<svg width="48" height="48" viewBox="0 0 48 48" fill="none" xmlns="http://www.w3.org/2000/svg">
<g clip-path="url(#clip0_31_12)">
<path d="M27 0H32.94C33.372 2.145 34.56 4.851 36.645 7.536C38.685 10.167 41.391 12 45 12V18C39.741 18 35.79 15.558 33 12.513V33C33 35.9667 32.1203 38.8668 30.4721 41.3336C28.8238 43.8003 26.4812 45.7229 23.7403 46.8582C20.9994 47.9935 17.9834 48.2906 15.0737 47.7118C12.1639 47.133 9.49119 45.7044 7.39341 43.6066C5.29562 41.5088 3.86701 38.8361 3.28823 35.9264C2.70945 33.0166 3.0065 30.0006 4.14181 27.2597C5.27713 24.5189 7.19972 22.1762 9.66645 20.528C12.1332 18.8797 15.0333 18 18 18V24C16.22 24 14.4799 24.5278 12.9999 25.5168C11.5198 26.5057 10.3663 27.9113 9.68509 29.5558C9.0039 31.2004 8.82567 33.01 9.17294 34.7558C9.52021 36.5016 10.3774 38.1053 11.636 39.364C12.8947 40.6226 14.4984 41.4798 16.2442 41.8271C17.99 42.1743 19.7996 41.9961 21.4442 41.3149C23.0887 40.6337 24.4943 39.4802 25.4832 38.0001C26.4722 36.5201 27 34.78 27 33V0Z"/>
</g>
<defs>
<clipPath id="clip0_31_12">
<rect width="48" height="48" fill="white"/>
</clipPath>
</defs>
</svg>
